<svg xmlns="http://www.w3.org/2000/svg" viewBox="0 0 512 512" id="thumbsup"><path d="M256 0C114.615 0 0 114.615 0 256s114.615 256 256 256 256-114.615 256-256S397.385 0 256 0zm-90.062 357.875c0 6.731-5.457 12.188-12.188 12.188h-36.562c-6.731 0-12.188-5.457-12.188-12.188V205.531c0-6.731 5.457-12.188 12.188-12.188h36.562c6.731 0 12.188 5.457 12.188 12.188v152.344zm250.013-123.946-28.383 108.8c-4.2 16.1-18.74 27.333-35.378 27.333H251.25c-26.924 0-48.75-21.826-48.75-48.75V213.537a48.747 48.747 0 0 1 14.279-34.471l70.855-70.855a21.416 21.416 0 0 1 15.145-6.273c16.169 0 26.507 17.23 18.898 31.497l-22.202 41.628c-4.416 8.281 1.584 18.281 10.969 18.281h74.152c17.897 0 32.405 14.508 32.405 32.405a32.488 32.488 0 0 1-1.05 8.18z"></path></svg>